<?xml version="1.0" encoding="UTF-8"?>
<svg id="Layer_2" data-name="Layer 2" xmlns="http://www.w3.org/2000/svg" viewBox="0 0 456.4 456.41">
  <defs>
    <style>
      .cls-1, .cls-2, .cls-3 {
        stroke-width: 0px;
      }

      .cls-2 {
        fill: #cf230d;
      }

      .cls-3 {
        fill: #fff;
      }
    </style>
  </defs>
  <g id="katman_1" data-name="katman 1">
    <g>
      <path class="cls-1" d="m196.86,83.44c0-1.6-.13-3.13-.38-4.6-.08-.49-.18-.97-.28-1.44-2.26-9.91-10.06-16.26-19.71-16.59-1.38-.05-2.8.03-4.24.23-1.93.27-3.9.78-5.9,1.53-22.73,8.55-43.07,20.99-60.31,38.06-10.26,10.15-19.08,20.83-26.46,32.04-.46.7-.92,1.4-1.37,2.11-21.15,33.13-29.82,70.85-25.54,113.11,2.73,26.97,11.69,52,26.36,74.83,21.64,33.69,51.17,57.7,88.83,71.55,5.02,1.85,10.06,1.87,15.08.04,8.55-3.11,13.92-11.2,13.92-21.06.01-48.3,0-96.6,0-144.91v-46.83c0-32.69.03-65.38-.01-98.07Zm-60.19,182.32c-1.18.12-2.38.02-3.57.02-14.01-.3-23.4-8.01-30.34-19.32-7.46-12.16-11.07-25.67-13.35-39.6-.58-3.53-.89-7.09-1.34-10.64-.26-2.03-.14-4.21,1.95-4.95.57-.2,1.24-.33,1.93-.38.23-.02.46-.02.69-.02.92.02,1.82.2,2.49.57,25.02,13.85,49.96,27.84,74.9,41.83,2.92,1.64,3.73,3.78,2.16,6.68-4.1,7.57-9.1,13.91-15.43,18.45-2.23,1.6-4.63,2.97-7.21,4.1-3.87,1.68-8.14,2.8-12.89,3.27Z"/>
      <path class="cls-1" d="m455.36,210.01c-3.46-43.4-18.02-82.76-44.08-117.58-33.21-44.38-76.89-73.27-130.85-86.37-12.38-3.01-24.96-4.9-37.7-5.56-1.03-.05-2.04-.33-3.07-.5h-23.38c-.91.18-1.82.47-2.74.51-12.65.66-25.13,2.56-37.43,5.51-49.27,11.83-90.58,36.96-122.85,75.93C8.16,136.43-8.17,199.09,3.79,268.7c7.59,44.18,27.27,82.74,58.06,115.36,36.83,39.03,81.89,62.51,135.11,70.05,29.52,4.18,58.86,2.71,87.63-4.95,59.7-15.89,105.97-50.33,138.56-102.8,17.48-28.14,27.88-58.89,31.66-91.84.57-4.99,1.07-9.98,1.6-14.98v-15.97c-.35-4.52-.68-9.04-1.04-13.56Zm-227.36,229.87c-114.87-.13-213.81-93.47-211.48-217.06C18.66,109.06,113.23,16.14,228.37,16.47c112.16-.44,211.19,90.25,211.44,212.72.24,115.77-95.9,210.83-211.82,210.69Z"/>
      <path class="cls-2" d="m228.37,16.47c-115.14-.33-209.71,92.59-211.85,206.35-2.32,123.59,96.61,216.93,211.48,217.06,115.92.14,212.06-94.92,211.82-210.69-.25-122.47-99.28-213.15-211.44-212.72Zm-31.5,165.05v46.83c0,48.3,0,96.6,0,144.91,0,9.86-5.37,17.95-13.92,21.06-5.02,1.82-10.06,1.81-15.08-.04-37.66-13.86-67.19-37.87-88.83-71.55-14.67-22.83-23.63-47.87-26.36-74.83-4.27-42.26,4.39-79.98,25.54-113.11.45-.7.91-1.41,1.37-2.11,7.38-11.21,16.21-21.89,26.46-32.04,17.25-17.07,37.58-29.51,60.31-38.06,2-.75,3.97-1.25,5.9-1.53,1.44-.2,2.86-.28,4.24-.23,9.65.33,17.45,6.68,19.71,16.59.11.47.2.95.28,1.44.25,1.46.38,3,.38,4.6.04,32.69.01,65.38.01,98.07Zm166.01,160.74c-19.66,23.76-44.36,40.66-73.16,51.62-15.37,5.85-30.06-4.11-30.07-20.57-.03-48.48-.01-96.95-.01-145.43,0-30.07.11-60.14.08-90.2-.02-18.04-.08-36.08-.25-54.12-.14-15.14,14.45-27.63,30.76-21,60.23,24.48,98.14,68.3,111.12,131.85,11.23,54.98-2.69,104.62-38.47,147.85Z"/>
      <path class="cls-1" d="m290.24,62.56c-16.31-6.63-30.9,5.87-30.76,21,.17,18.04.23,36.08.25,54.12.03,30.07-.08,60.14-.08,90.2,0,48.48-.02,96.95.01,145.43.01,16.46,14.7,26.42,30.07,20.57,28.8-10.97,53.5-27.87,73.16-51.62,35.78-43.23,49.7-92.87,38.47-147.85-12.98-63.56-50.89-107.37-111.12-131.85Zm76.34,128.63c2.14,1.38,2,3.48,1.77,5.65-1.88,17.36-5.59,34.19-14.65,49.41-4.61,7.74-10.64,14.11-19.26,17.32-3.64,1.36-7.6,1.85-11.42,2.73-9.91-.27-18.42-3.69-25.86-9.88-5.21-4.33-9.33-9.58-12.49-15.57-2.04-3.87-1.46-5.75,2.35-7.88,24.55-13.75,49.11-27.48,73.64-41.24,1.93-1.09,3.82-1.89,5.91-.54Z"/>
      <path class="cls-3" d="m156.77,258.39c6.32-4.53,11.33-10.88,15.43-18.45,1.57-2.9.76-5.04-2.16-6.68-24.94-13.99-49.88-27.98-74.9-41.83-.68-.38-1.58-.55-2.49-.57-.23,0-.46,0-.69.02-.69.05-1.36.18-1.93.38-2.08.73-2.2,2.92-1.95,4.95.45,3.55.76,7.12,1.34,10.64,2.28,13.93,5.89,27.45,13.35,39.6,6.94,11.31,16.33,19.02,30.34,19.32,1.19,0,2.39.1,3.57-.02,4.75-.47,9.02-1.59,12.89-3.27,2.58-1.12,4.97-2.5,7.21-4.1Z"/>
      <path class="cls-3" d="m284.67,240.85c3.15,5.99,7.28,11.25,12.49,15.57,7.44,6.19,15.95,9.61,25.86,9.88,3.82-.88,7.78-1.38,11.42-2.73,8.62-3.21,14.65-9.58,19.26-17.32,9.06-15.22,12.77-32.05,14.65-49.41.23-2.17.37-4.27-1.77-5.65-2.09-1.34-3.98-.54-5.91.54-24.54,13.76-49.1,27.49-73.64,41.24-3.8,2.13-4.38,4.01-2.35,7.88Z"/>
    </g>
  </g>
</svg>